<?xml version="1.0" encoding="utf-8"?>
<!-- Generator: Adobe Illustrator 16.0.4, SVG Export Plug-In . SVG Version: 6.00 Build 0)  -->
<!DOCTYPE svg PUBLIC "-//W3C//DTD SVG 1.1//EN" "http://www.w3.org/Graphics/SVG/1.1/DTD/svg11.dtd">
<svg version="1.1" id="Calque_1" xmlns="http://www.w3.org/2000/svg" xmlns:xlink="http://www.w3.org/1999/xlink" x="0px" y="0px"
	 width="5.651px" height="24px" viewBox="0 0 5.651 24" enable-background="new 0 0 5.651 24" xml:space="preserve">
<path d="M2.969,10.814c0.123-0.279,0.195-0.615,0.216-1.006c0.021-0.391,0.058-0.826,0.058-1.321V3.542
	c0-0.99,0.098-1.481,0.346-1.995c0.247-0.515,1.341-0.841,2.063-0.841V0c-0.6,0-1.434,0.071-1.867,0.174
	c-0.433,0.104-0.801,0.29-1.098,0.558C2.386,1,2.17,1.396,2.036,1.923C1.901,2.448,1.833,3.125,1.833,3.95v4.951
	c0,0.825-0.118,1.5-0.355,2.027C1.241,11.455,0.598,11.845,0,12.01c0.598,0.165,1.24,0.555,1.478,1.081
	c0.237,0.527,0.356,1.202,0.356,2.027v4.951c0,0.825,0.067,1.5,0.202,2.026c0.134,0.525,0.35,0.923,0.649,1.192
	c0.298,0.268,0.666,0.453,1.099,0.557C4.219,23.95,5.054,24,5.651,24v-0.705c-0.722,0-1.818-0.284-2.066-0.8
	c-0.247-0.516-0.345-1.008-0.345-1.997v-4.944c0-0.495-0.038-0.93-0.057-1.321c-0.02-0.392-0.093-0.728-0.218-1.007
	c-0.123-0.277-0.324-0.521-0.603-0.728c-0.277-0.206-0.746-0.354-1.241-0.479c0.495-0.124,0.962-0.271,1.24-0.478
	c0.279-0.206,0.48-0.449,0.604-0.728L2.969,10.814z"/>
</svg>
