<?xml version="1.0" encoding="utf-8"?>
<!-- Generator: Adobe Illustrator 16.0.4, SVG Export Plug-In . SVG Version: 6.00 Build 0)  -->
<!DOCTYPE svg PUBLIC "-//W3C//DTD SVG 1.1//EN" "http://www.w3.org/Graphics/SVG/1.1/DTD/svg11.dtd">
<svg version="1.1" id="Calque_1" xmlns="http://www.w3.org/2000/svg" xmlns:xlink="http://www.w3.org/1999/xlink" x="0px" y="0px"
	 width="5.651px" height="24px" viewBox="0 0 5.651 24" enable-background="new 0 0 5.651 24" xml:space="preserve">
<path d="M2.685,10.814c0.124,0.279,0.325,0.522,0.604,0.728c0.278,0.206,0.745,0.354,1.24,0.478
	c-0.495,0.124-0.964,0.272-1.241,0.479c-0.279,0.207-0.48,0.45-0.603,0.728c-0.125,0.279-0.198,0.615-0.218,1.007
	c-0.019,0.392-0.057,0.826-0.057,1.321v4.944c0,0.989-0.098,1.481-0.345,1.997c-0.248,0.516-1.344,0.8-2.066,0.8V24
	c0.598,0,1.433-0.05,1.867-0.154c0.433-0.104,0.801-0.289,1.099-0.557c0.299-0.27,0.515-0.667,0.649-1.192
	c0.135-0.526,0.202-1.201,0.202-2.026v-4.951c0-0.825,0.118-1.5,0.356-2.027c0.238-0.526,0.88-0.916,1.478-1.081
	c-0.598-0.165-1.241-0.556-1.478-1.083c-0.237-0.527-0.355-1.202-0.355-2.027V3.95c0-0.825-0.068-1.501-0.203-2.027
	C3.481,1.396,3.266,1,2.965,0.732C2.668,0.463,2.3,0.278,1.867,0.174C1.434,0.071,0.6,0,0,0v0.707c0.723,0,1.816,0.326,2.063,0.841
	c0.248,0.514,0.346,1.005,0.346,1.995v4.944c0,0.495,0.037,0.93,0.058,1.321c0.021,0.392,0.093,0.728,0.216,1.006L2.685,10.814z"/>
</svg>
