<?xml version="1.0" encoding="utf-8"?>
<!-- Generator: Adobe Illustrator 16.0.4, SVG Export Plug-In . SVG Version: 6.00 Build 0)  -->
<!DOCTYPE svg PUBLIC "-//W3C//DTD SVG 1.1//EN" "http://www.w3.org/Graphics/SVG/1.1/DTD/svg11.dtd">
<svg version="1.1" id="Calque_1" xmlns="http://www.w3.org/2000/svg" xmlns:xlink="http://www.w3.org/1999/xlink" x="0px" y="0px"
	 width="87.5px" height="24px" viewBox="-19.625 -6 87.5 24" enable-background="new -19.625 -6 87.5 24" xml:space="preserve">
<path d="M55.875-6c-6.621,0-12,5.38-12,12c0,6.621,5.379,12,12,12s12-5.379,12-12C67.875-0.62,62.496-6,55.875-6z M55.875,12
	c-3.309,0-6-2.691-6-6c0-3.308,2.691-6,6-6s6,2.692,6,6C61.875,9.309,59.184,12,55.875,12z M-12.125-1.5c-4.136,0-7.5,3.364-7.5,7.5
	c0,4.133,3.364,7.5,7.5,7.5s7.5-3.367,7.5-7.5C-4.625,1.864-7.989-1.5-12.125-1.5z M-12.125,12.5c-3.584,0-6.5-2.916-6.5-6.5
	s2.916-6.5,6.5-6.5s6.5,2.916,6.5,6.5S-8.541,12.5-12.125,12.5z M19.875-1.5c-4.136,0-7.5,3.364-7.5,7.5c0,4.133,3.364,7.5,7.5,7.5
	s7.5-3.367,7.5-7.5C27.375,1.864,24.011-1.5,19.875-1.5z M19.875,12.5c-3.584,0-6.5-2.916-6.5-6.5s2.916-6.5,6.5-6.5
	s6.5,2.916,6.5,6.5S23.459,12.5,19.875,12.5z"/>
</svg>
